<svg xmlns="http://www.w3.org/2000/svg" viewBox="0 0 96 96" width="96" height="96">
  <defs>
    <linearGradient id="g" x1="0" y1="0" x2="0" y2="1">
      <stop offset="0" stop-color="#5b8cff"/>
      <stop offset="1" stop-color="#3a5fd9"/>
    </linearGradient>
  </defs>
  <path d="M48 6 L82 18 V46 C82 68 67 84 48 90 C29 84 14 68 14 46 V18 Z"
        fill="url(#g)" stroke="#dbe4ff" stroke-width="2"/>
  <path d="M48 24 a10 10 0 0 1 10 10 v4 h3 a3 3 0 0 1 3 3 v16 a3 3 0 0 1 -3 3 H35 a3 3 0 0 1 -3 -3 V41 a3 3 0 0 1 3 -3 h3 v-4 a10 10 0 0 1 10 -10 z m0 6 a4 4 0 0 0 -4 4 v4 h8 v-4 a4 4 0 0 0 -4 -4 z"
        fill="#ffffff"/>
</svg>
